<svg width="1000" height="419" viewBox="0 0 1121 419" fill="none" xmlns="http://www.w3.org/2000/svg">
<circle cx="243.5" cy="3.5" r="3.5" fill="#F4F4F4"/>
<circle cx="243.5" cy="24.5" r="3.5" fill="#F4F4F4"/>
<circle cx="243.5" cy="45.5" r="3.5" fill="#F4F4F4"/>
<circle cx="243.5" cy="66.5" r="3.5" fill="#F4F4F4"/>
<circle cx="243.5" cy="87.5" r="3.5" fill="#F4F4F4"/>
<circle cx="243.5" cy="108.5" r="3.5" fill="#F4F4F4"/>
<circle cx="243.5" cy="129.5" r="3.5" fill="#F4F4F4"/>
<circle cx="243.5" cy="150.5" r="3.5" fill="#F4F4F4"/>
<circle cx="264.5" cy="3.5" r="3.5" fill="#F4F4F4"/>
<circle cx="264.5" cy="24.5" r="3.5" fill="#F4F4F4"/>
<circle cx="264.5" cy="45.5" r="3.5" fill="#F4F4F4"/>
<circle cx="264.5" cy="66.5" r="3.5" fill="#F4F4F4"/>
<circle cx="264.5" cy="87.5" r="3.5" fill="#F4F4F4"/>
<circle cx="264.5" cy="108.5" r="3.5" fill="#F4F4F4"/>
<circle cx="264.5" cy="129.5" r="3.5" fill="#F4F4F4"/>
<circle cx="264.5" cy="150.5" r="3.5" fill="#F4F4F4"/>
<circle cx="285.5" cy="3.5" r="3.5" fill="#F4F4F4"/>
<circle cx="285.5" cy="24.5" r="3.5" fill="#F4F4F4"/>
<circle cx="285.5" cy="45.5" r="3.5" fill="#F4F4F4"/>
<circle cx="285.5" cy="66.5" r="3.5" fill="#F4F4F4"/>
<circle cx="285.5" cy="87.5" r="3.5" fill="#F4F4F4"/>
<circle cx="285.5" cy="108.5" r="3.5" fill="#F4F4F4"/>
<circle cx="285.5" cy="129.5" r="3.5" fill="#F4F4F4"/>
<circle cx="285.5" cy="150.5" r="3.5" fill="#F4F4F4"/>
<circle cx="306.5" cy="3.5" r="3.5" fill="#F4F4F4"/>
<circle cx="306.5" cy="24.5" r="3.5" fill="#F4F4F4"/>
<circle cx="306.5" cy="45.5" r="3.5" fill="#F4F4F4"/>
<circle cx="306.5" cy="66.5" r="3.5" fill="#F4F4F4"/>
<circle cx="306.5" cy="87.5" r="3.5" fill="#F4F4F4"/>
<circle cx="306.5" cy="108.5" r="3.5" fill="#F4F4F4"/>
<circle cx="306.5" cy="129.5" r="3.5" fill="#F4F4F4"/>
<circle cx="306.5" cy="150.5" r="3.5" fill="#F4F4F4"/>
<circle cx="327.5" cy="3.5" r="3.5" fill="#F4F4F4"/>
<circle cx="327.5" cy="24.5" r="3.5" fill="#F4F4F4"/>
<circle cx="327.5" cy="45.5" r="3.5" fill="#F4F4F4"/>
<circle cx="327.5" cy="66.5" r="3.5" fill="#F4F4F4"/>
<circle cx="327.5" cy="87.5" r="3.5" fill="#F4F4F4"/>
<circle cx="327.5" cy="108.5" r="3.5" fill="#F4F4F4"/>
<circle cx="327.5" cy="129.5" r="3.5" fill="#F4F4F4"/>
<circle cx="327.5" cy="150.5" r="3.5" fill="#F4F4F4"/>
<circle cx="348.5" cy="3.5" r="3.5" fill="#F4F4F4"/>
<circle cx="348.5" cy="24.5" r="3.5" fill="#F4F4F4"/>
<circle cx="348.5" cy="45.5" r="3.5" fill="#F4F4F4"/>
<circle cx="348.5" cy="66.5" r="3.5" fill="#F4F4F4"/>
<circle cx="348.5" cy="87.5" r="3.5" fill="#F4F4F4"/>
<circle cx="348.5" cy="108.5" r="3.5" fill="#F4F4F4"/>
<circle cx="348.5" cy="129.5" r="3.5" fill="#F4F4F4"/>
<circle cx="348.5" cy="150.5" r="3.5" fill="#F4F4F4"/>
<circle cx="369.5" cy="3.5" r="3.5" fill="#F4F4F4"/>
<circle cx="369.5" cy="24.5" r="3.5" fill="#F4F4F4"/>
<circle cx="369.5" cy="45.5" r="3.5" fill="#F4F4F4"/>
<circle cx="369.5" cy="66.5" r="3.5" fill="#F4F4F4"/>
<circle cx="369.5" cy="87.5" r="3.5" fill="#F4F4F4"/>
<circle cx="369.5" cy="108.5" r="3.5" fill="#F4F4F4"/>
<circle cx="369.5" cy="129.5" r="3.5" fill="#F4F4F4"/>
<circle cx="369.5" cy="150.5" r="3.5" fill="#F4F4F4"/>
<circle cx="390.5" cy="3.5" r="3.5" fill="#F4F4F4"/>
<circle cx="390.5" cy="24.5" r="3.5" fill="#F4F4F4"/>
<circle cx="390.5" cy="45.5" r="3.5" fill="#F4F4F4"/>
<circle cx="390.5" cy="66.5" r="3.5" fill="#F4F4F4"/>
<circle cx="390.5" cy="87.5" r="3.5" fill="#F4F4F4"/>
<circle cx="390.5" cy="108.5" r="3.5" fill="#F4F4F4"/>
<circle cx="390.5" cy="129.5" r="3.5" fill="#F4F4F4"/>
<circle cx="390.5" cy="150.5" r="3.5" fill="#F4F4F4"/>
<circle cx="411.5" cy="3.5" r="3.5" fill="#F4F4F4"/>
<circle cx="411.5" cy="24.5" r="3.5" fill="#F4F4F4"/>
<circle cx="411.5" cy="45.5" r="3.5" fill="#F4F4F4"/>
<circle cx="411.5" cy="66.5" r="3.5" fill="#F4F4F4"/>
<circle cx="411.5" cy="87.5" r="3.5" fill="#F4F4F4"/>
<circle cx="411.5" cy="108.5" r="3.5" fill="#F4F4F4"/>
<circle cx="411.5" cy="129.5" r="3.5" fill="#F4F4F4"/>
<circle cx="411.5" cy="150.5" r="3.5" fill="#F4F4F4"/>
<circle cx="432.5" cy="3.5" r="3.5" fill="#F4F4F4"/>
<circle cx="432.5" cy="24.5" r="3.5" fill="#F4F4F4"/>
<circle cx="432.5" cy="45.5" r="3.5" fill="#F4F4F4"/>
<circle cx="432.5" cy="66.5" r="3.5" fill="#F4F4F4"/>
<circle cx="432.5" cy="87.5" r="3.5" fill="#F4F4F4"/>
<circle cx="432.5" cy="108.5" r="3.5" fill="#F4F4F4"/>
<circle cx="432.5" cy="129.5" r="3.5" fill="#F4F4F4"/>
<circle cx="432.5" cy="150.5" r="3.5" fill="#F4F4F4"/>
<circle cx="60" cy="359" r="55.6" stroke="#FF007A" stroke-width="8.8"/>
<circle cx="1029" cy="241" r="92" fill="#FFF5DB"/>
</svg>
