<svg width="1252" height="608" viewBox="0 0 1252 608" fill="none" xmlns="http://www.w3.org/2000/svg">
<circle cx="211.5" cy="356.5" r="3.5" fill="#F4F4F4"/>
<circle cx="211.5" cy="377.5" r="3.5" fill="#F4F4F4"/>
<circle cx="211.5" cy="398.5" r="3.5" fill="#F4F4F4"/>
<circle cx="211.5" cy="419.5" r="3.5" fill="#F4F4F4"/>
<circle cx="211.5" cy="440.5" r="3.5" fill="#F4F4F4"/>
<circle cx="211.5" cy="461.5" r="3.5" fill="#F4F4F4"/>
<circle cx="211.5" cy="482.5" r="3.5" fill="#F4F4F4"/>
<circle cx="211.5" cy="503.5" r="3.5" fill="#F4F4F4"/>
<circle cx="232.5" cy="356.5" r="3.5" fill="#F4F4F4"/>
<circle cx="232.5" cy="377.5" r="3.5" fill="#F4F4F4"/>
<circle cx="232.5" cy="398.5" r="3.5" fill="#F4F4F4"/>
<circle cx="232.5" cy="419.5" r="3.5" fill="#F4F4F4"/>
<circle cx="232.5" cy="440.5" r="3.5" fill="#F4F4F4"/>
<circle cx="232.5" cy="461.5" r="3.5" fill="#F4F4F4"/>
<circle cx="232.5" cy="482.5" r="3.5" fill="#F4F4F4"/>
<circle cx="232.5" cy="503.5" r="3.5" fill="#F4F4F4"/>
<circle cx="253.5" cy="356.5" r="3.5" fill="#F4F4F4"/>
<circle cx="253.5" cy="377.5" r="3.5" fill="#F4F4F4"/>
<circle cx="253.5" cy="398.5" r="3.5" fill="#F4F4F4"/>
<circle cx="253.5" cy="419.5" r="3.5" fill="#F4F4F4"/>
<circle cx="253.5" cy="440.5" r="3.5" fill="#F4F4F4"/>
<circle cx="253.5" cy="461.5" r="3.5" fill="#F4F4F4"/>
<circle cx="253.5" cy="482.5" r="3.5" fill="#F4F4F4"/>
<circle cx="253.5" cy="503.5" r="3.5" fill="#F4F4F4"/>
<circle cx="274.5" cy="356.5" r="3.5" fill="#F4F4F4"/>
<circle cx="274.5" cy="377.5" r="3.5" fill="#F4F4F4"/>
<circle cx="274.5" cy="398.5" r="3.5" fill="#F4F4F4"/>
<circle cx="274.5" cy="419.5" r="3.5" fill="#F4F4F4"/>
<circle cx="274.5" cy="440.5" r="3.5" fill="#F4F4F4"/>
<circle cx="274.5" cy="461.5" r="3.5" fill="#F4F4F4"/>
<circle cx="274.5" cy="482.5" r="3.5" fill="#F4F4F4"/>
<circle cx="274.5" cy="503.5" r="3.5" fill="#F4F4F4"/>
<circle cx="295.5" cy="356.5" r="3.5" fill="#F4F4F4"/>
<circle cx="295.5" cy="377.5" r="3.5" fill="#F4F4F4"/>
<circle cx="295.5" cy="398.5" r="3.5" fill="#F4F4F4"/>
<circle cx="295.5" cy="419.5" r="3.5" fill="#F4F4F4"/>
<circle cx="295.5" cy="440.5" r="3.5" fill="#F4F4F4"/>
<circle cx="295.5" cy="461.5" r="3.5" fill="#F4F4F4"/>
<circle cx="295.5" cy="482.5" r="3.5" fill="#F4F4F4"/>
<circle cx="295.5" cy="503.5" r="3.5" fill="#F4F4F4"/>
<circle cx="316.5" cy="356.5" r="3.5" fill="#F4F4F4"/>
<circle cx="316.5" cy="377.5" r="3.5" fill="#F4F4F4"/>
<circle cx="316.5" cy="398.5" r="3.5" fill="#F4F4F4"/>
<circle cx="316.5" cy="419.5" r="3.5" fill="#F4F4F4"/>
<circle cx="316.5" cy="440.5" r="3.5" fill="#F4F4F4"/>
<circle cx="316.5" cy="461.5" r="3.5" fill="#F4F4F4"/>
<circle cx="316.5" cy="482.5" r="3.5" fill="#F4F4F4"/>
<circle cx="316.5" cy="503.5" r="3.5" fill="#F4F4F4"/>
<circle cx="337.5" cy="356.5" r="3.5" fill="#F4F4F4"/>
<circle cx="337.5" cy="377.5" r="3.5" fill="#F4F4F4"/>
<circle cx="337.5" cy="398.5" r="3.5" fill="#F4F4F4"/>
<circle cx="337.5" cy="419.5" r="3.5" fill="#F4F4F4"/>
<circle cx="337.5" cy="440.5" r="3.5" fill="#F4F4F4"/>
<circle cx="337.5" cy="461.5" r="3.5" fill="#F4F4F4"/>
<circle cx="337.5" cy="482.5" r="3.5" fill="#F4F4F4"/>
<circle cx="337.5" cy="503.5" r="3.5" fill="#F4F4F4"/>
<circle cx="358.5" cy="356.5" r="3.5" fill="#F4F4F4"/>
<circle cx="358.5" cy="377.5" r="3.5" fill="#F4F4F4"/>
<circle cx="358.5" cy="398.5" r="3.5" fill="#F4F4F4"/>
<circle cx="358.5" cy="419.5" r="3.5" fill="#F4F4F4"/>
<circle cx="358.5" cy="440.5" r="3.5" fill="#F4F4F4"/>
<circle cx="358.5" cy="461.5" r="3.5" fill="#F4F4F4"/>
<circle cx="358.5" cy="482.5" r="3.5" fill="#F4F4F4"/>
<circle cx="358.5" cy="503.5" r="3.5" fill="#F4F4F4"/>
<circle cx="379.5" cy="356.5" r="3.5" fill="#F4F4F4"/>
<circle cx="379.5" cy="377.5" r="3.5" fill="#F4F4F4"/>
<circle cx="379.5" cy="398.5" r="3.5" fill="#F4F4F4"/>
<circle cx="379.5" cy="419.5" r="3.5" fill="#F4F4F4"/>
<circle cx="379.5" cy="440.5" r="3.5" fill="#F4F4F4"/>
<circle cx="379.5" cy="461.5" r="3.5" fill="#F4F4F4"/>
<circle cx="379.5" cy="482.5" r="3.5" fill="#F4F4F4"/>
<circle cx="379.5" cy="503.5" r="3.5" fill="#F4F4F4"/>
<circle cx="400.5" cy="356.5" r="3.5" fill="#F4F4F4"/>
<circle cx="400.5" cy="377.5" r="3.5" fill="#F4F4F4"/>
<circle cx="400.5" cy="398.5" r="3.5" fill="#F4F4F4"/>
<circle cx="400.5" cy="419.5" r="3.5" fill="#F4F4F4"/>
<circle cx="400.5" cy="440.5" r="3.5" fill="#F4F4F4"/>
<circle cx="400.5" cy="461.5" r="3.5" fill="#F4F4F4"/>
<circle cx="400.5" cy="482.5" r="3.5" fill="#F4F4F4"/>
<circle cx="400.5" cy="503.5" r="3.5" fill="#F4F4F4"/>
<circle cx="3.5" cy="356.5" r="3.5" fill="#F4F4F4"/>
<circle cx="3.5" cy="377.5" r="3.5" fill="#F4F4F4"/>
<circle cx="3.5" cy="398.5" r="3.5" fill="#F4F4F4"/>
<circle cx="3.5" cy="419.5" r="3.5" fill="#F4F4F4"/>
<circle cx="3.5" cy="440.5" r="3.5" fill="#F4F4F4"/>
<circle cx="3.5" cy="461.5" r="3.5" fill="#F4F4F4"/>
<circle cx="3.5" cy="482.5" r="3.5" fill="#F4F4F4"/>
<circle cx="3.5" cy="503.5" r="3.5" fill="#F4F4F4"/>
<circle cx="24.5" cy="356.5" r="3.5" fill="#F4F4F4"/>
<circle cx="24.5" cy="377.5" r="3.5" fill="#F4F4F4"/>
<circle cx="24.5" cy="398.5" r="3.5" fill="#F4F4F4"/>
<circle cx="24.5" cy="419.5" r="3.5" fill="#F4F4F4"/>
<circle cx="24.5" cy="440.5" r="3.5" fill="#F4F4F4"/>
<circle cx="24.5" cy="461.5" r="3.5" fill="#F4F4F4"/>
<circle cx="24.5" cy="482.5" r="3.5" fill="#F4F4F4"/>
<circle cx="24.5" cy="503.5" r="3.5" fill="#F4F4F4"/>
<circle cx="45.5" cy="356.5" r="3.5" fill="#F4F4F4"/>
<circle cx="45.5" cy="377.5" r="3.5" fill="#F4F4F4"/>
<circle cx="45.5" cy="398.5" r="3.5" fill="#F4F4F4"/>
<circle cx="45.5" cy="419.5" r="3.5" fill="#F4F4F4"/>
<circle cx="45.5" cy="440.5" r="3.5" fill="#F4F4F4"/>
<circle cx="45.5" cy="461.5" r="3.5" fill="#F4F4F4"/>
<circle cx="45.5" cy="482.5" r="3.5" fill="#F4F4F4"/>
<circle cx="45.5" cy="503.5" r="3.5" fill="#F4F4F4"/>
<circle cx="66.5" cy="356.5" r="3.5" fill="#F4F4F4"/>
<circle cx="66.5" cy="377.5" r="3.5" fill="#F4F4F4"/>
<circle cx="66.5" cy="398.5" r="3.5" fill="#F4F4F4"/>
<circle cx="66.5" cy="419.5" r="3.5" fill="#F4F4F4"/>
<circle cx="66.5" cy="440.5" r="3.5" fill="#F4F4F4"/>
<circle cx="66.5" cy="461.5" r="3.5" fill="#F4F4F4"/>
<circle cx="66.5" cy="482.5" r="3.5" fill="#F4F4F4"/>
<circle cx="66.5" cy="503.5" r="3.5" fill="#F4F4F4"/>
<circle cx="87.5" cy="356.5" r="3.5" fill="#F4F4F4"/>
<circle cx="87.5" cy="377.5" r="3.5" fill="#F4F4F4"/>
<circle cx="87.5" cy="398.5" r="3.5" fill="#F4F4F4"/>
<circle cx="87.5" cy="419.5" r="3.5" fill="#F4F4F4"/>
<circle cx="87.5" cy="440.5" r="3.5" fill="#F4F4F4"/>
<circle cx="87.5" cy="461.5" r="3.5" fill="#F4F4F4"/>
<circle cx="87.5" cy="482.5" r="3.5" fill="#F4F4F4"/>
<circle cx="87.5" cy="503.5" r="3.5" fill="#F4F4F4"/>
<circle cx="108.5" cy="356.5" r="3.5" fill="#F4F4F4"/>
<circle cx="108.5" cy="377.5" r="3.5" fill="#F4F4F4"/>
<circle cx="108.5" cy="398.5" r="3.5" fill="#F4F4F4"/>
<circle cx="108.5" cy="419.5" r="3.5" fill="#F4F4F4"/>
<circle cx="108.5" cy="440.5" r="3.5" fill="#F4F4F4"/>
<circle cx="108.5" cy="461.5" r="3.5" fill="#F4F4F4"/>
<circle cx="108.5" cy="482.5" r="3.5" fill="#F4F4F4"/>
<circle cx="108.5" cy="503.5" r="3.5" fill="#F4F4F4"/>
<circle cx="129.5" cy="356.5" r="3.5" fill="#F4F4F4"/>
<circle cx="129.5" cy="377.5" r="3.5" fill="#F4F4F4"/>
<circle cx="129.5" cy="398.5" r="3.5" fill="#F4F4F4"/>
<circle cx="129.5" cy="419.5" r="3.5" fill="#F4F4F4"/>
<circle cx="129.5" cy="440.5" r="3.5" fill="#F4F4F4"/>
<circle cx="129.5" cy="461.5" r="3.5" fill="#F4F4F4"/>
<circle cx="129.5" cy="482.5" r="3.5" fill="#F4F4F4"/>
<circle cx="129.5" cy="503.5" r="3.5" fill="#F4F4F4"/>
<circle cx="150.5" cy="356.5" r="3.5" fill="#F4F4F4"/>
<circle cx="150.5" cy="377.5" r="3.5" fill="#F4F4F4"/>
<circle cx="150.5" cy="398.5" r="3.5" fill="#F4F4F4"/>
<circle cx="150.5" cy="419.5" r="3.5" fill="#F4F4F4"/>
<circle cx="150.5" cy="440.5" r="3.5" fill="#F4F4F4"/>
<circle cx="150.5" cy="461.5" r="3.5" fill="#F4F4F4"/>
<circle cx="150.5" cy="482.5" r="3.5" fill="#F4F4F4"/>
<circle cx="150.5" cy="503.5" r="3.5" fill="#F4F4F4"/>
<circle cx="171.5" cy="356.5" r="3.5" fill="#F4F4F4"/>
<circle cx="171.5" cy="377.5" r="3.5" fill="#F4F4F4"/>
<circle cx="171.5" cy="398.5" r="3.5" fill="#F4F4F4"/>
<circle cx="171.5" cy="419.5" r="3.5" fill="#F4F4F4"/>
<circle cx="171.5" cy="440.5" r="3.5" fill="#F4F4F4"/>
<circle cx="171.5" cy="461.5" r="3.5" fill="#F4F4F4"/>
<circle cx="171.5" cy="482.5" r="3.5" fill="#F4F4F4"/>
<circle cx="171.5" cy="503.5" r="3.5" fill="#F4F4F4"/>
<circle cx="192.5" cy="356.5" r="3.5" fill="#F4F4F4"/>
<circle cx="192.5" cy="377.5" r="3.5" fill="#F4F4F4"/>
<circle cx="192.5" cy="398.5" r="3.5" fill="#F4F4F4"/>
<circle cx="192.5" cy="419.5" r="3.5" fill="#F4F4F4"/>
<circle cx="192.5" cy="440.5" r="3.5" fill="#F4F4F4"/>
<circle cx="192.5" cy="461.5" r="3.5" fill="#F4F4F4"/>
<circle cx="192.5" cy="482.5" r="3.5" fill="#F4F4F4"/>
<circle cx="192.5" cy="503.5" r="3.5" fill="#F4F4F4"/>
<path d="M1074 430H1252V508C1252 563.228 1207.23 608 1152 608H1074V430Z" fill="#FFF5DB"/>
<circle cx="619.5" cy="64.5" r="64.5" fill="#DAE9FF"/>
</svg>
