<svg width="1072" height="387" viewBox="0 0 1272 387" fill="none" xmlns="http://www.w3.org/2000/svg">
<circle cx="1100.5" cy="3.5" r="3.5" fill="#DFEEFF"/>
<circle cx="1100.5" cy="24.5" r="3.5" fill="#DFEEFF"/>
<circle cx="1100.5" cy="45.5" r="3.5" fill="#DFEEFF"/>
<circle cx="1100.5" cy="66.5" r="3.5" fill="#DFEEFF"/>
<circle cx="1100.5" cy="87.5" r="3.5" fill="#DFEEFF"/>
<circle cx="1100.5" cy="108.5" r="3.5" fill="#DFEEFF"/>
<circle cx="1100.5" cy="129.5" r="3.5" fill="#DFEEFF"/>
<circle cx="1100.5" cy="150.5" r="3.5" fill="#DFEEFF"/>
<circle cx="1121.5" cy="3.5" r="3.5" fill="#DFEEFF"/>
<circle cx="1121.5" cy="24.5" r="3.5" fill="#DFEEFF"/>
<circle cx="1121.5" cy="45.5" r="3.5" fill="#DFEEFF"/>
<circle cx="1121.5" cy="66.5" r="3.5" fill="#DFEEFF"/>
<circle cx="1121.5" cy="87.5" r="3.5" fill="#DFEEFF"/>
<circle cx="1121.5" cy="108.5" r="3.5" fill="#DFEEFF"/>
<circle cx="1121.5" cy="129.5" r="3.5" fill="#DFEEFF"/>
<circle cx="1121.5" cy="150.5" r="3.5" fill="#DFEEFF"/>
<circle cx="1142.5" cy="3.5" r="3.5" fill="#DFEEFF"/>
<circle cx="1142.5" cy="24.5" r="3.5" fill="#DFEEFF"/>
<circle cx="1142.5" cy="45.5" r="3.5" fill="#DFEEFF"/>
<circle cx="1142.5" cy="66.5" r="3.5" fill="#DFEEFF"/>
<circle cx="1142.5" cy="87.5" r="3.5" fill="#DFEEFF"/>
<circle cx="1142.5" cy="108.5" r="3.5" fill="#DFEEFF"/>
<circle cx="1142.5" cy="129.5" r="3.5" fill="#DFEEFF"/>
<circle cx="1142.5" cy="150.5" r="3.5" fill="#DFEEFF"/>
<circle cx="1163.5" cy="3.5" r="3.5" fill="#DFEEFF"/>
<circle cx="1163.5" cy="24.5" r="3.5" fill="#DFEEFF"/>
<circle cx="1163.5" cy="45.5" r="3.5" fill="#DFEEFF"/>
<circle cx="1163.5" cy="66.5" r="3.5" fill="#DFEEFF"/>
<circle cx="1163.5" cy="87.5" r="3.5" fill="#DFEEFF"/>
<circle cx="1163.5" cy="108.5" r="3.5" fill="#DFEEFF"/>
<circle cx="1163.5" cy="129.5" r="3.5" fill="#DFEEFF"/>
<circle cx="1163.5" cy="150.5" r="3.5" fill="#DFEEFF"/>
<circle cx="1184.5" cy="3.5" r="3.5" fill="#DFEEFF"/>
<circle cx="1184.5" cy="24.5" r="3.5" fill="#DFEEFF"/>
<circle cx="1184.5" cy="45.5" r="3.5" fill="#DFEEFF"/>
<circle cx="1184.5" cy="66.5" r="3.5" fill="#DFEEFF"/>
<circle cx="1184.5" cy="87.5" r="3.5" fill="#DFEEFF"/>
<circle cx="1184.5" cy="108.5" r="3.5" fill="#DFEEFF"/>
<circle cx="1184.5" cy="129.5" r="3.5" fill="#DFEEFF"/>
<circle cx="1184.5" cy="150.5" r="3.5" fill="#DFEEFF"/>
<circle cx="1205.5" cy="3.5" r="3.5" fill="#DFEEFF"/>
<circle cx="1205.5" cy="24.5" r="3.5" fill="#DFEEFF"/>
<circle cx="1205.5" cy="45.5" r="3.5" fill="#DFEEFF"/>
<circle cx="1205.5" cy="66.5" r="3.5" fill="#DFEEFF"/>
<circle cx="1205.5" cy="87.5" r="3.5" fill="#DFEEFF"/>
<circle cx="1205.5" cy="108.5" r="3.5" fill="#DFEEFF"/>
<circle cx="1205.5" cy="129.5" r="3.5" fill="#DFEEFF"/>
<circle cx="1205.5" cy="150.5" r="3.5" fill="#DFEEFF"/>
<circle cx="1226.5" cy="3.5" r="3.5" fill="#DFEEFF"/>
<circle cx="1226.5" cy="24.5" r="3.5" fill="#DFEEFF"/>
<circle cx="1226.5" cy="45.5" r="3.5" fill="#DFEEFF"/>
<circle cx="1226.5" cy="66.5" r="3.5" fill="#DFEEFF"/>
<circle cx="1226.5" cy="87.5" r="3.5" fill="#DFEEFF"/>
<circle cx="1226.5" cy="108.5" r="3.5" fill="#DFEEFF"/>
<circle cx="1226.5" cy="129.5" r="3.5" fill="#DFEEFF"/>
<circle cx="1226.5" cy="150.5" r="3.5" fill="#DFEEFF"/>
<circle cx="1247.5" cy="3.5" r="3.5" fill="#DFEEFF"/>
<circle cx="1247.5" cy="24.5" r="3.5" fill="#DFEEFF"/>
<circle cx="1247.5" cy="45.5" r="3.5" fill="#DFEEFF"/>
<circle cx="1247.5" cy="66.5" r="3.5" fill="#DFEEFF"/>
<circle cx="1247.5" cy="87.5" r="3.5" fill="#DFEEFF"/>
<circle cx="1247.5" cy="108.5" r="3.5" fill="#DFEEFF"/>
<circle cx="1247.5" cy="129.5" r="3.5" fill="#DFEEFF"/>
<circle cx="1247.5" cy="150.5" r="3.5" fill="#DFEEFF"/>
<circle cx="1268.5" cy="3.5" r="3.5" fill="#DFEEFF"/>
<circle cx="1268.5" cy="24.5" r="3.5" fill="#DFEEFF"/>
<circle cx="1268.5" cy="45.5" r="3.5" fill="#DFEEFF"/>
<circle cx="1268.5" cy="66.5" r="3.5" fill="#DFEEFF"/>
<circle cx="1268.5" cy="87.5" r="3.5" fill="#DFEEFF"/>
<circle cx="1268.5" cy="108.5" r="3.5" fill="#DFEEFF"/>
<circle cx="1268.5" cy="129.5" r="3.5" fill="#DFEEFF"/>
<circle cx="1268.5" cy="150.5" r="3.5" fill="#DFEEFF"/>
<path d="M178 209L178 387L100 387C44.7715 387 1.58873e-06 342.228 9.30141e-07 287L0 209L178 209Z" fill="#FFF5DB"/>
</svg>
